<svg xmlns="http://www.w3.org/2000/svg" viewBox="0 0 32 32">
  <defs>
    <linearGradient id="g1" x1="0" y1="0" x2="0" y2="1">
      <stop offset="0%" stop-color="#F97316"/>
      <stop offset="100%" stop-color="#EA580C"/>
    </linearGradient>
    <linearGradient id="g2" x1="0" y1="0" x2="0" y2="1">
      <stop offset="0%" stop-color="#FDBA74"/>
      <stop offset="100%" stop-color="#FB923C"/>
    </linearGradient>
  </defs>

  <!-- Claws -->
  <path d="M6,14 Q2,10 1,8 C-0.5,6 0.5,5 2,7 L5.5,12Z" fill="#F97316"/>
  <path d="M6,14 Q2,16 1,18 C-0.5,20 0.5,21 2,19 L5.5,15Z" fill="#F97316"/>
  <path d="M26,14 Q30,10 31,8 C32.5,6 31.5,5 30,7 L26.5,12Z" fill="#F97316"/>
  <path d="M26,14 Q30,16 31,18 C32.5,20 31.5,21 30,19 L26.5,15Z" fill="#F97316"/>

  <!-- Gear teeth -->
  <g fill="url(#g1)">
    <rect x="14" y="4" width="4" height="6" rx="1" transform="rotate(0,16,16)"/>
    <rect x="14" y="4" width="4" height="6" rx="1" transform="rotate(45,16,16)"/>
    <rect x="14" y="4" width="4" height="6" rx="1" transform="rotate(90,16,16)"/>
    <rect x="14" y="4" width="4" height="6" rx="1" transform="rotate(135,16,16)"/>
    <rect x="14" y="4" width="4" height="6" rx="1" transform="rotate(180,16,16)"/>
    <rect x="14" y="4" width="4" height="6" rx="1" transform="rotate(225,16,16)"/>
    <rect x="14" y="4" width="4" height="6" rx="1" transform="rotate(270,16,16)"/>
    <rect x="14" y="4" width="4" height="6" rx="1" transform="rotate(315,16,16)"/>
  </g>
  <circle cx="16" cy="16" r="9" fill="url(#g1)"/>
  <circle cx="16" cy="16" r="5" fill="url(#g2)"/>
  <circle cx="16" cy="16" r="2" fill="#EA580C"/>

  <!-- Eyes -->
  <circle cx="12.5" cy="12.5" r="2.8" fill="white"/>
  <circle cx="19.5" cy="12.5" r="2.8" fill="white"/>
  <circle cx="13" cy="13" r="1.4" fill="#1C1917"/>
  <circle cx="20" cy="13" r="1.4" fill="#1C1917"/>
  <circle cx="12" cy="11.5" r="0.7" fill="white" opacity="0.9"/>
  <circle cx="19" cy="11.5" r="0.7" fill="white" opacity="0.9"/>
</svg>
